<svg width="22" height="22" viewBox="0 0 22 22" fill="none" xmlns="http://www.w3.org/2000/svg">
<path d="M17.4166 3.66659H15.5833V2.74992C15.5833 2.5068 15.4867 2.27365 15.3148 2.10174C15.1429 1.92983 14.9097 1.83325 14.6666 1.83325C14.4235 1.83325 14.1903 1.92983 14.0184 2.10174C13.8465 2.27365 13.7499 2.5068 13.7499 2.74992V3.66659H8.24992V2.74992C8.24992 2.5068 8.15334 2.27365 7.98143 2.10174C7.80952 1.92983 7.57637 1.83325 7.33325 1.83325C7.09014 1.83325 6.85698 1.92983 6.68507 2.10174C6.51316 2.27365 6.41658 2.5068 6.41658 2.74992V3.66659H4.58325C3.85391 3.66659 3.15443 3.95632 2.63871 4.47204C2.12298 4.98777 1.83325 5.68724 1.83325 6.41658V17.4166C1.83325 18.1459 2.12298 18.8454 2.63871 19.3611C3.15443 19.8769 3.85391 20.1666 4.58325 20.1666H17.4166C18.1459 20.1666 18.8454 19.8769 19.3611 19.3611C19.8769 18.8454 20.1666 18.1459 20.1666 17.4166V6.41658C20.1666 5.68724 19.8769 4.98777 19.3611 4.47204C18.8454 3.95632 18.1459 3.66659 17.4166 3.66659ZM18.3333 17.4166C18.3333 17.6597 18.2367 17.8929 18.0648 18.0648C17.8929 18.2367 17.6597 18.3333 17.4166 18.3333H4.58325C4.34014 18.3333 4.10698 18.2367 3.93507 18.0648C3.76316 17.8929 3.66659 17.6597 3.66659 17.4166V10.9999H18.3333V17.4166ZM18.3333 9.16658H3.66659V6.41658C3.66659 6.17347 3.76316 5.94031 3.93507 5.7684C4.10698 5.5965 4.34014 5.49992 4.58325 5.49992H6.41658V6.41658C6.41658 6.6597 6.51316 6.89286 6.68507 7.06477C6.85698 7.23667 7.09014 7.33325 7.33325 7.33325C7.57637 7.33325 7.80952 7.23667 7.98143 7.06477C8.15334 6.89286 8.24992 6.6597 8.24992 6.41658V5.49992H13.7499V6.41658C13.7499 6.6597 13.8465 6.89286 14.0184 7.06477C14.1903 7.23667 14.4235 7.33325 14.6666 7.33325C14.9097 7.33325 15.1429 7.23667 15.3148 7.06477C15.4867 6.89286 15.5833 6.6597 15.5833 6.41658V5.49992H17.4166C17.6597 5.49992 17.8929 5.5965 18.0648 5.7684C18.2367 5.94031 18.3333 6.17347 18.3333 6.41658V9.16658Z" fill="black"/>
</svg>
